<mxfile host="Electron" modified="2023-10-15T18:10:39.398Z" agent="Mozilla/5.0 (Windows NT 10.0; Win64; x64) AppleWebKit/537.36 (KHTML, like Gecko) draw.io/22.0.2 Chrome/114.0.5735.289 Electron/25.8.4 Safari/537.36" etag="V3unb39moxW3eH6_UZiG" version="22.0.2" type="device">
  <diagram name="Page-1" id="K7GGyE9mfa9EHH289KWn">
    <mxGraphModel dx="1509" dy="880" grid="1" gridSize="10" guides="1" tooltips="1" connect="1" arrows="1" fold="1" page="1" pageScale="1" pageWidth="850" pageHeight="1100" math="0" shadow="0">
      <root>
        <mxCell id="0" />
        <mxCell id="1" parent="0" />
        <mxCell id="R7dfJEu_5J_XWcmGC57w-11" value="" style="rounded=0;whiteSpace=wrap;html=1;" parent="1" vertex="1">
          <mxGeometry x="30" y="214" width="360" height="260" as="geometry" />
        </mxCell>
        <mxCell id="R7dfJEu_5J_XWcmGC57w-8" value="&lt;div&gt;CASIER&lt;/div&gt;&lt;div&gt;nr_casa_de_marcat&lt;br&gt;&lt;/div&gt;" style="rounded=1;whiteSpace=wrap;html=1;" parent="1" vertex="1">
          <mxGeometry x="260" y="234" width="120" height="60" as="geometry" />
        </mxCell>
        <mxCell id="R7dfJEu_5J_XWcmGC57w-9" value="&lt;div&gt;BUCATAR&lt;/div&gt;&lt;div&gt;data_antrenament_&lt;/div&gt;&lt;div&gt;de_siguranta&lt;br&gt;&lt;/div&gt;" style="rounded=1;whiteSpace=wrap;html=1;" parent="1" vertex="1">
          <mxGeometry x="260" y="314" width="120" height="60" as="geometry" />
        </mxCell>
        <mxCell id="R7dfJEu_5J_XWcmGC57w-10" value="&lt;div&gt;MANAGER&lt;/div&gt;&lt;div&gt;autorizat_sa_&lt;/div&gt;&lt;div&gt;angajeze&lt;br&gt;&lt;/div&gt;" style="rounded=1;whiteSpace=wrap;html=1;" parent="1" vertex="1">
          <mxGeometry x="260" y="404" width="120" height="60" as="geometry" />
        </mxCell>
        <mxCell id="R7dfJEu_5J_XWcmGC57w-13" value="&lt;div&gt;ANGAJAT&lt;/div&gt;&lt;div&gt;id_angajat#&lt;/div&gt;&lt;div&gt;job_cod&lt;/div&gt;&lt;div&gt;nume&lt;/div&gt;&lt;div&gt;data_angajare&lt;/div&gt;&lt;div&gt;&lt;br&gt;&lt;/div&gt;" style="text;html=1;strokeColor=none;fillColor=none;align=center;verticalAlign=middle;whiteSpace=wrap;rounded=0;" parent="1" vertex="1">
          <mxGeometry x="50" y="234" width="60" height="220" as="geometry" />
        </mxCell>
        <mxCell id="DwRfLZ-1oQ1YcIXO67qD-1" value="" style="endArrow=none;html=1;rounded=0;exitX=0;exitY=0.5;exitDx=0;exitDy=0;" parent="1" source="R7dfJEu_5J_XWcmGC57w-8" edge="1">
          <mxGeometry width="50" height="50" relative="1" as="geometry">
            <mxPoint x="390" y="544" as="sourcePoint" />
            <mxPoint x="192" y="214" as="targetPoint" />
            <Array as="points">
              <mxPoint x="192" y="264" />
            </Array>
          </mxGeometry>
        </mxCell>
        <mxCell id="DwRfLZ-1oQ1YcIXO67qD-2" value="&lt;div&gt;ISA&lt;/div&gt;&lt;div&gt;1:1(0)&lt;/div&gt;" style="edgeLabel;html=1;align=center;verticalAlign=middle;resizable=0;points=[];" parent="DwRfLZ-1oQ1YcIXO67qD-1" vertex="1" connectable="0">
          <mxGeometry x="-0.118" y="-2" relative="1" as="geometry">
            <mxPoint x="17" y="-18" as="offset" />
          </mxGeometry>
        </mxCell>
        <mxCell id="DwRfLZ-1oQ1YcIXO67qD-3" value="" style="endArrow=none;html=1;rounded=0;" parent="1" edge="1">
          <mxGeometry width="50" height="50" relative="1" as="geometry">
            <mxPoint x="260" y="342" as="sourcePoint" />
            <mxPoint x="150" y="474" as="targetPoint" />
            <Array as="points">
              <mxPoint x="150" y="342" />
            </Array>
          </mxGeometry>
        </mxCell>
        <mxCell id="DwRfLZ-1oQ1YcIXO67qD-4" value="&lt;div&gt;ISA&lt;/div&gt;&lt;div&gt;1:1(0)&lt;/div&gt;" style="edgeLabel;html=1;align=center;verticalAlign=middle;resizable=0;points=[];" parent="DwRfLZ-1oQ1YcIXO67qD-3" vertex="1" connectable="0">
          <mxGeometry x="-0.118" y="-2" relative="1" as="geometry">
            <mxPoint x="71" y="-21" as="offset" />
          </mxGeometry>
        </mxCell>
        <mxCell id="DwRfLZ-1oQ1YcIXO67qD-5" value="" style="endArrow=none;html=1;rounded=0;exitX=0;exitY=0.5;exitDx=0;exitDy=0;" parent="1" source="R7dfJEu_5J_XWcmGC57w-10" edge="1">
          <mxGeometry width="50" height="50" relative="1" as="geometry">
            <mxPoint x="260" y="432" as="sourcePoint" />
            <mxPoint x="190" y="474" as="targetPoint" />
            <Array as="points">
              <mxPoint x="190" y="434" />
            </Array>
          </mxGeometry>
        </mxCell>
        <mxCell id="DwRfLZ-1oQ1YcIXO67qD-6" value="&lt;div&gt;ISA&lt;/div&gt;&lt;div&gt;1:1(0)&lt;/div&gt;" style="edgeLabel;html=1;align=center;verticalAlign=middle;resizable=0;points=[];" parent="DwRfLZ-1oQ1YcIXO67qD-5" vertex="1" connectable="0">
          <mxGeometry x="-0.118" y="-2" relative="1" as="geometry">
            <mxPoint x="12" y="-18" as="offset" />
          </mxGeometry>
        </mxCell>
        <mxCell id="DwRfLZ-1oQ1YcIXO67qD-7" value="&lt;div&gt;RESTAURANT&lt;/div&gt;&lt;div&gt;id_restaurant#&lt;/div&gt;&lt;div&gt;data_deschidere&lt;br&gt;&lt;/div&gt;" style="rounded=0;whiteSpace=wrap;html=1;" parent="1" vertex="1">
          <mxGeometry x="425" y="534" width="190" height="80" as="geometry" />
        </mxCell>
        <mxCell id="DwRfLZ-1oQ1YcIXO67qD-9" value="" style="rounded=0;whiteSpace=wrap;html=1;" parent="1" vertex="1">
          <mxGeometry x="640" y="234" width="190" height="150" as="geometry" />
        </mxCell>
        <mxCell id="DwRfLZ-1oQ1YcIXO67qD-10" value="" style="endArrow=none;html=1;rounded=0;entryX=1;entryY=0.5;entryDx=0;entryDy=0;" parent="1" target="R7dfJEu_5J_XWcmGC57w-8" edge="1">
          <mxGeometry width="50" height="50" relative="1" as="geometry">
            <mxPoint x="640" y="264" as="sourcePoint" />
            <mxPoint x="380" y="274" as="targetPoint" />
          </mxGeometry>
        </mxCell>
        <mxCell id="DwRfLZ-1oQ1YcIXO67qD-11" value="M(0)" style="edgeLabel;html=1;align=center;verticalAlign=middle;resizable=0;points=[];" parent="DwRfLZ-1oQ1YcIXO67qD-10" vertex="1" connectable="0">
          <mxGeometry x="0.784" y="-1" relative="1" as="geometry">
            <mxPoint x="216" y="-9" as="offset" />
          </mxGeometry>
        </mxCell>
        <mxCell id="DwRfLZ-1oQ1YcIXO67qD-12" value="1" style="edgeLabel;html=1;align=center;verticalAlign=middle;resizable=0;points=[];" parent="DwRfLZ-1oQ1YcIXO67qD-10" vertex="1" connectable="0">
          <mxGeometry x="-0.776" y="-2" relative="1" as="geometry">
            <mxPoint x="-216" y="-8" as="offset" />
          </mxGeometry>
        </mxCell>
        <mxCell id="DwRfLZ-1oQ1YcIXO67qD-13" value="" style="endArrow=none;html=1;rounded=0;entryX=0.5;entryY=1;entryDx=0;entryDy=0;exitX=1;exitY=0.5;exitDx=0;exitDy=0;" parent="1" edge="1">
          <mxGeometry width="50" height="50" relative="1" as="geometry">
            <mxPoint x="615" y="574" as="sourcePoint" />
            <mxPoint x="735" y="384" as="targetPoint" />
            <Array as="points">
              <mxPoint x="735" y="574" />
            </Array>
          </mxGeometry>
        </mxCell>
        <mxCell id="DwRfLZ-1oQ1YcIXO67qD-14" value="1" style="edgeLabel;html=1;align=center;verticalAlign=middle;resizable=0;points=[];" parent="DwRfLZ-1oQ1YcIXO67qD-13" vertex="1" connectable="0">
          <mxGeometry x="0.64" relative="1" as="geometry">
            <mxPoint x="-113" y="124" as="offset" />
          </mxGeometry>
        </mxCell>
        <mxCell id="DwRfLZ-1oQ1YcIXO67qD-15" value="M(0)" style="edgeLabel;html=1;align=center;verticalAlign=middle;resizable=0;points=[];" parent="DwRfLZ-1oQ1YcIXO67qD-13" vertex="1" connectable="0">
          <mxGeometry x="-0.76" y="-1" relative="1" as="geometry">
            <mxPoint x="68" y="-181" as="offset" />
          </mxGeometry>
        </mxCell>
        <mxCell id="DwRfLZ-1oQ1YcIXO67qD-16" value="&lt;div&gt;RETETA&lt;/div&gt;&lt;div&gt;id_reteta#&lt;/div&gt;&lt;div&gt;nume&lt;/div&gt;&lt;div&gt;pret&lt;br&gt;&lt;/div&gt;" style="rounded=0;whiteSpace=wrap;html=1;" parent="1" vertex="1">
          <mxGeometry x="690" y="734" width="120" height="60" as="geometry" />
        </mxCell>
        <mxCell id="DwRfLZ-1oQ1YcIXO67qD-25" value="&lt;div&gt;ORAS&lt;/div&gt;&lt;div&gt;id_oras#&lt;/div&gt;&lt;div&gt;nume&lt;br&gt;&lt;/div&gt;" style="rounded=0;whiteSpace=wrap;html=1;" parent="1" vertex="1">
          <mxGeometry x="485" y="430" width="70" height="60" as="geometry" />
        </mxCell>
        <mxCell id="DwRfLZ-1oQ1YcIXO67qD-26" value="" style="endArrow=none;html=1;rounded=0;entryX=0.5;entryY=1;entryDx=0;entryDy=0;exitX=0.5;exitY=0;exitDx=0;exitDy=0;" parent="1" source="DwRfLZ-1oQ1YcIXO67qD-7" target="DwRfLZ-1oQ1YcIXO67qD-25" edge="1">
          <mxGeometry width="50" height="50" relative="1" as="geometry">
            <mxPoint x="400" y="604" as="sourcePoint" />
            <mxPoint x="450" y="554" as="targetPoint" />
          </mxGeometry>
        </mxCell>
        <mxCell id="DwRfLZ-1oQ1YcIXO67qD-27" value="1" style="edgeLabel;html=1;align=center;verticalAlign=middle;resizable=0;points=[];" parent="DwRfLZ-1oQ1YcIXO67qD-26" vertex="1" connectable="0">
          <mxGeometry x="0.4" y="-1" relative="1" as="geometry">
            <mxPoint x="4" y="-4" as="offset" />
          </mxGeometry>
        </mxCell>
        <mxCell id="DwRfLZ-1oQ1YcIXO67qD-28" value="M" style="edgeLabel;html=1;align=center;verticalAlign=middle;resizable=0;points=[];" parent="DwRfLZ-1oQ1YcIXO67qD-26" vertex="1" connectable="0">
          <mxGeometry x="-0.52" y="-1" relative="1" as="geometry">
            <mxPoint x="5" y="2" as="offset" />
          </mxGeometry>
        </mxCell>
        <mxCell id="DwRfLZ-1oQ1YcIXO67qD-41" value="&lt;div&gt;INGREDIENT&lt;/div&gt;&lt;div&gt;id_ingredient#&lt;/div&gt;&lt;div&gt;nume&lt;br&gt;&lt;/div&gt;" style="rounded=0;whiteSpace=wrap;html=1;" parent="1" vertex="1">
          <mxGeometry x="303" y="734" width="120" height="60" as="geometry" />
        </mxCell>
        <mxCell id="DwRfLZ-1oQ1YcIXO67qD-46" value="" style="endArrow=none;html=1;rounded=0;entryX=0;entryY=0.5;entryDx=0;entryDy=0;exitX=1;exitY=0.5;exitDx=0;exitDy=0;" parent="1" source="DwRfLZ-1oQ1YcIXO67qD-41" target="DwRfLZ-1oQ1YcIXO67qD-16" edge="1">
          <mxGeometry width="50" height="50" relative="1" as="geometry">
            <mxPoint x="400" y="624" as="sourcePoint" />
            <mxPoint x="450" y="574" as="targetPoint" />
          </mxGeometry>
        </mxCell>
        <mxCell id="DwRfLZ-1oQ1YcIXO67qD-47" value="M" style="edgeLabel;html=1;align=center;verticalAlign=middle;resizable=0;points=[];" parent="DwRfLZ-1oQ1YcIXO67qD-46" vertex="1" connectable="0">
          <mxGeometry x="-0.8643" y="-3" relative="1" as="geometry">
            <mxPoint x="-2" y="5" as="offset" />
          </mxGeometry>
        </mxCell>
        <mxCell id="DwRfLZ-1oQ1YcIXO67qD-48" value="M" style="edgeLabel;html=1;align=center;verticalAlign=middle;resizable=0;points=[];" parent="DwRfLZ-1oQ1YcIXO67qD-46" vertex="1" connectable="0">
          <mxGeometry x="0.8929" y="2" relative="1" as="geometry">
            <mxPoint y="11" as="offset" />
          </mxGeometry>
        </mxCell>
        <mxCell id="DwRfLZ-1oQ1YcIXO67qD-49" value="" style="endArrow=none;html=1;rounded=0;entryX=0.5;entryY=1;entryDx=0;entryDy=0;exitX=0;exitY=0.5;exitDx=0;exitDy=0;" parent="1" edge="1">
          <mxGeometry width="50" height="50" relative="1" as="geometry">
            <mxPoint x="425" y="574" as="sourcePoint" />
            <mxPoint x="210" y="474" as="targetPoint" />
            <Array as="points">
              <mxPoint x="210" y="574" />
            </Array>
          </mxGeometry>
        </mxCell>
        <mxCell id="DwRfLZ-1oQ1YcIXO67qD-50" value="1" style="edgeLabel;html=1;align=center;verticalAlign=middle;resizable=0;points=[];" parent="DwRfLZ-1oQ1YcIXO67qD-49" vertex="1" connectable="0">
          <mxGeometry x="-0.8857" y="3" relative="1" as="geometry">
            <mxPoint x="11" y="-13" as="offset" />
          </mxGeometry>
        </mxCell>
        <mxCell id="DwRfLZ-1oQ1YcIXO67qD-51" value="M" style="edgeLabel;html=1;align=center;verticalAlign=middle;resizable=0;points=[];" parent="DwRfLZ-1oQ1YcIXO67qD-49" vertex="1" connectable="0">
          <mxGeometry x="0.8857" y="-2" relative="1" as="geometry">
            <mxPoint x="5" y="-9" as="offset" />
          </mxGeometry>
        </mxCell>
        <mxCell id="DwRfLZ-1oQ1YcIXO67qD-52" value="" style="endArrow=none;html=1;rounded=0;entryX=0.25;entryY=1;entryDx=0;entryDy=0;" parent="1" target="R7dfJEu_5J_XWcmGC57w-11" edge="1">
          <mxGeometry width="50" height="50" relative="1" as="geometry">
            <mxPoint x="70" y="474" as="sourcePoint" />
            <mxPoint x="120" y="484" as="targetPoint" />
            <Array as="points">
              <mxPoint x="70" y="534" />
              <mxPoint x="120" y="534" />
            </Array>
          </mxGeometry>
        </mxCell>
        <mxCell id="DwRfLZ-1oQ1YcIXO67qD-53" value="1(0)" style="edgeLabel;html=1;align=center;verticalAlign=middle;resizable=0;points=[];" parent="DwRfLZ-1oQ1YcIXO67qD-52" vertex="1" connectable="0">
          <mxGeometry x="0.8" relative="1" as="geometry">
            <mxPoint x="12" y="-7" as="offset" />
          </mxGeometry>
        </mxCell>
        <mxCell id="DwRfLZ-1oQ1YcIXO67qD-54" value="M(0)" style="edgeLabel;html=1;align=center;verticalAlign=middle;resizable=0;points=[];" parent="DwRfLZ-1oQ1YcIXO67qD-52" vertex="1" connectable="0">
          <mxGeometry x="-0.8706" y="-2" relative="1" as="geometry">
            <mxPoint x="-14" y="-1" as="offset" />
          </mxGeometry>
        </mxCell>
        <mxCell id="DwRfLZ-1oQ1YcIXO67qD-55" value="&lt;div&gt;ALERGIE&lt;/div&gt;&lt;div&gt;id_alergie#&lt;/div&gt;&lt;div&gt;nume&lt;br&gt;&lt;/div&gt;" style="rounded=0;whiteSpace=wrap;html=1;" parent="1" vertex="1">
          <mxGeometry x="50" y="734" width="120" height="60" as="geometry" />
        </mxCell>
        <mxCell id="DwRfLZ-1oQ1YcIXO67qD-56" value="" style="endArrow=none;html=1;rounded=0;entryX=1;entryY=0.5;entryDx=0;entryDy=0;exitX=0;exitY=0.5;exitDx=0;exitDy=0;" parent="1" source="DwRfLZ-1oQ1YcIXO67qD-41" target="DwRfLZ-1oQ1YcIXO67qD-55" edge="1">
          <mxGeometry width="50" height="50" relative="1" as="geometry">
            <mxPoint x="231" y="794" as="sourcePoint" />
            <mxPoint x="231" y="894" as="targetPoint" />
          </mxGeometry>
        </mxCell>
        <mxCell id="DwRfLZ-1oQ1YcIXO67qD-57" value="M" style="edgeLabel;html=1;align=center;verticalAlign=middle;resizable=0;points=[];" parent="DwRfLZ-1oQ1YcIXO67qD-56" vertex="1" connectable="0">
          <mxGeometry x="-0.76" y="-1" relative="1" as="geometry">
            <mxPoint x="8" y="8" as="offset" />
          </mxGeometry>
        </mxCell>
        <mxCell id="DwRfLZ-1oQ1YcIXO67qD-58" value="M(0)" style="edgeLabel;html=1;align=center;verticalAlign=middle;resizable=0;points=[];" parent="DwRfLZ-1oQ1YcIXO67qD-56" vertex="1" connectable="0">
          <mxGeometry x="0.68" y="-1" relative="1" as="geometry">
            <mxPoint x="-8" y="9" as="offset" />
          </mxGeometry>
        </mxCell>
        <mxCell id="2Y1EmJNbw8-3XTTrJ1v6-1" value="" style="endArrow=none;html=1;rounded=0;exitX=0.5;exitY=0;exitDx=0;exitDy=0;" edge="1" parent="1" source="DwRfLZ-1oQ1YcIXO67qD-16">
          <mxGeometry width="50" height="50" relative="1" as="geometry">
            <mxPoint x="751" y="624" as="sourcePoint" />
            <mxPoint x="751" y="384" as="targetPoint" />
          </mxGeometry>
        </mxCell>
        <mxCell id="2Y1EmJNbw8-3XTTrJ1v6-2" value="M(0)" style="edgeLabel;html=1;align=center;verticalAlign=middle;resizable=0;points=[];" vertex="1" connectable="0" parent="2Y1EmJNbw8-3XTTrJ1v6-1">
          <mxGeometry x="-0.1128" y="2" relative="1" as="geometry">
            <mxPoint x="16" y="-188" as="offset" />
          </mxGeometry>
        </mxCell>
        <mxCell id="2Y1EmJNbw8-3XTTrJ1v6-16" value="M(0)" style="edgeLabel;html=1;align=center;verticalAlign=middle;resizable=0;points=[];" vertex="1" connectable="0" parent="2Y1EmJNbw8-3XTTrJ1v6-1">
          <mxGeometry x="-0.9079" y="-2" relative="1" as="geometry">
            <mxPoint x="12" y="5" as="offset" />
          </mxGeometry>
        </mxCell>
        <mxCell id="2Y1EmJNbw8-3XTTrJ1v6-3" value="&lt;div style=&quot;border-color: var(--border-color);&quot;&gt;COMANDA&lt;/div&gt;&lt;div style=&quot;border-color: var(--border-color);&quot;&gt;id_comanda#&lt;/div&gt;&lt;div style=&quot;border-color: var(--border-color);&quot;&gt;data&lt;/div&gt;" style="text;html=1;strokeColor=none;fillColor=none;align=center;verticalAlign=middle;whiteSpace=wrap;rounded=0;" vertex="1" parent="1">
          <mxGeometry x="660" y="294" width="60" height="30" as="geometry" />
        </mxCell>
        <mxCell id="2Y1EmJNbw8-3XTTrJ1v6-4" value="&lt;div&gt;LIVRARE&lt;/div&gt;&lt;div&gt;adresa&lt;br&gt;&lt;/div&gt;&lt;div&gt;cost&lt;/div&gt;" style="rounded=1;whiteSpace=wrap;html=1;" vertex="1" parent="1">
          <mxGeometry x="760" y="279" width="60" height="60" as="geometry" />
        </mxCell>
        <mxCell id="2Y1EmJNbw8-3XTTrJ1v6-7" value="" style="endArrow=none;html=1;rounded=0;exitX=0.5;exitY=0;exitDx=0;exitDy=0;entryX=0.789;entryY=-0.002;entryDx=0;entryDy=0;entryPerimeter=0;" edge="1" parent="1" source="2Y1EmJNbw8-3XTTrJ1v6-4" target="DwRfLZ-1oQ1YcIXO67qD-9">
          <mxGeometry width="50" height="50" relative="1" as="geometry">
            <mxPoint x="770" y="230" as="sourcePoint" />
            <mxPoint x="820" y="180" as="targetPoint" />
          </mxGeometry>
        </mxCell>
        <mxCell id="2Y1EmJNbw8-3XTTrJ1v6-8" value="ISA&lt;br&gt;1:1(0)" style="edgeLabel;html=1;align=center;verticalAlign=middle;resizable=0;points=[];" vertex="1" connectable="0" parent="2Y1EmJNbw8-3XTTrJ1v6-7">
          <mxGeometry x="0.0248" y="1" relative="1" as="geometry">
            <mxPoint x="21" as="offset" />
          </mxGeometry>
        </mxCell>
      </root>
    </mxGraphModel>
  </diagram>
</mxfile>
